<svg xmlns="http://www.w3.org/2000/svg" viewBox="0 0 120 120" width="120" height="120" role="img" aria-label="SANBA">
  <rect x="3" y="3" width="114" height="114" rx="27" fill="#FFFFFF" stroke="#221E1A" stroke-width="4"/>

  <g stroke="#221E1A" stroke-width="2" stroke-linejoin="round">
    <path d="M17 44 l-4 7 l9 -3 z" fill="#F0A814"/>
    <ellipse cx="21" cy="37" rx="10" ry="8" fill="#F0A814"/>
    <path d="M30 37 l1.5 7 l6.5 -5 z" fill="#FFFFFF"/>
    <ellipse cx="33" cy="28" rx="13" ry="10.5" fill="#FFFFFF"/>
  </g>
  <g fill="#F0A814">
    <circle cx="27" cy="28" r="1.9"/><circle cx="33" cy="28" r="1.9"/><circle cx="39" cy="28" r="1.9"/>
  </g>

  <g fill="none" stroke="#F0A814" stroke-width="2.2" stroke-linecap="round">
    <path d="M86 26 v-6"/><path d="M76 30 l-4 -4"/><path d="M96 30 l4 -4"/>
    <path d="M73 40 h-6"/><path d="M99 40 h6"/>
  </g>
  <circle cx="86" cy="40" r="9" fill="#F0A814" stroke="#221E1A" stroke-width="2"/>
  <g fill="none" stroke="#221E1A" stroke-linecap="round">
    <path d="M82 42 v-3 M90 42 v-3 M82 39 q4 -5 8 0" stroke-width="1.5"/>
    <path d="M81.5 49.5 L90.5 49.5 L89 55 Q86 57 83 55 Z" stroke-width="2" fill="#FFFFFF"/>
    <path d="M82.5 52.5 h7" stroke-width="1.6"/>
  </g>

  <g fill="none" stroke="#221E1A" stroke-width="3.4" stroke-linecap="round" stroke-linejoin="round">
    <circle cx="60" cy="49" r="13" fill="#FFFFFF"/>
    <line x1="60" y1="62" x2="60" y2="84"/>
    <line x1="60" y1="72" x2="45" y2="86"/>
    <line x1="60" y1="72" x2="75" y2="86"/>
    <line x1="60" y1="84" x2="47" y2="107"/>
    <line x1="60" y1="84" x2="73" y2="107"/>
    <circle cx="60" cy="74" r="6.5" fill="#F0A814" stroke-width="2.4"/>
  </g>
</svg>
